<?xml version="1.0" encoding="utf-8"?>
<svg xmlns="http://www.w3.org/2000/svg" viewBox="0 0 500 500" xmlns:bx="https://boxy-svg.com" width="500px" height="500px"><defs/><rect x="0.084" y="0.353" width="499.394" height="499.13" style="fill: rgb(131, 165, 152);"/><g fill="#d79921" stroke="none" transform="matrix(0.048828, 0, 0, -0.048828, -0.207807, 500.006439)"><path d="M0 5120 l0 -5120 5120 0 5120 0 0 5120 0 5120 -5120 0 -5120 0 0 -5120z m5734 3237 c46 -124 80 -250 108 -402 20 -104 23 -154 22 -375 0 -228 -2 -266 -23 -360 -52 -243 -164 -449 -374 -695 -73 -85 -147 -162 -487 -510 -256 -261 -355 -388 -445 -570 -92 -185 -119 -291 -119 -465 0 -108 4 -152 23 -220 29 -109 96 -251 166 -351 30 -43 55 -80 55 -82 0 -8 -220 52 -286 79 -364 144 -604 384 -701 701 -24 81 -27 102 -27 258 0 153 3 180 27 268 42 157 149 361 266 507 163 204 337 379 701 706 407 365 584 546 746 761 207 276 321 590 298 823 -7 69 2 56 50 -73z m316 -2304 c268 -277 419 -557 464 -865 20 -133 20 -203 0 -335 -38 -258 -151 -482 -371 -735 -98 -112 -207 -214 -523 -488 -399 -346 -551 -505 -677 -713 -161 -264 -237 -585 -189 -792 8 -33 13 -62 11 -64 -9 -8 -130 192 -185 304 -108 223 -151 411 -151 662 0 168 19 298 66 440 84 253 209 427 580 813 103 107 230 242 283 300 306 337 497 671 556 975 47 235 35 508 -25 628 l-21 40 39 -30 c21 -17 86 -80 143 -140z" style="fill: rgb(29, 32, 33);"/></g></svg>